<mxfile host="app.diagrams.net" agent="Mozilla/5.0 (X11; Linux x86_64) AppleWebKit/537.36 (KHTML, like Gecko) Chrome/133.0.0.0 Safari/537.36 Edg/133.0.0.0" version="26.0.16">
  <diagram name="Página-1" id="_-QJSZUnTCdhe3mcLjsa">
    <mxGraphModel dx="786" dy="1957" grid="1" gridSize="10" guides="1" tooltips="1" connect="1" arrows="1" fold="1" page="1" pageScale="1" pageWidth="827" pageHeight="1169" math="0" shadow="0">
      <root>
        <mxCell id="0" />
        <mxCell id="1" parent="0" />
        <mxCell id="gacvTMB5N87pIhQxX2p8-2" value="Produtor" style="swimlane;horizontal=0;whiteSpace=wrap;html=1;" vertex="1" parent="1">
          <mxGeometry x="220" y="-30" width="3880" height="160" as="geometry" />
        </mxCell>
        <mxCell id="gacvTMB5N87pIhQxX2p8-213" value="Notificação recebida" style="ellipse;shape=doubleEllipse;whiteSpace=wrap;html=1;aspect=fixed;fillColor=#fff2cc;strokeColor=#d6b656;" vertex="1" parent="gacvTMB5N87pIhQxX2p8-2">
          <mxGeometry x="2380" y="40" width="80" height="80" as="geometry" />
        </mxCell>
        <mxCell id="gacvTMB5N87pIhQxX2p8-3" value="Indústria" style="swimlane;childLayout=stackLayout;resizeParent=1;resizeParentMax=0;horizontal=0;startSize=20;horizontalStack=0;html=1;" vertex="1" parent="1">
          <mxGeometry x="220" y="160" width="3880" height="1250" as="geometry" />
        </mxCell>
        <mxCell id="gacvTMB5N87pIhQxX2p8-4" value="Aux. de Roteirização" style="swimlane;startSize=20;horizontal=0;html=1;" vertex="1" parent="gacvTMB5N87pIhQxX2p8-3">
          <mxGeometry x="20" width="3860" height="160" as="geometry" />
        </mxCell>
        <mxCell id="gacvTMB5N87pIhQxX2p8-10" value="Programar Rotas" style="rounded=0;whiteSpace=wrap;html=1;fillColor=#fff2cc;strokeColor=#d6b656;" vertex="1" parent="gacvTMB5N87pIhQxX2p8-4">
          <mxGeometry x="40" y="30" width="120" height="60" as="geometry" />
        </mxCell>
        <mxCell id="gacvTMB5N87pIhQxX2p8-224" value="Receber informações" style="ellipse;shape=doubleEllipse;whiteSpace=wrap;html=1;aspect=fixed;fillColor=#fff2cc;strokeColor=#d6b656;" vertex="1" parent="gacvTMB5N87pIhQxX2p8-4">
          <mxGeometry x="2760" y="30" width="80" height="80" as="geometry" />
        </mxCell>
        <mxCell id="gacvTMB5N87pIhQxX2p8-5" value="Motorista" style="swimlane;startSize=20;horizontal=0;html=1;" vertex="1" parent="gacvTMB5N87pIhQxX2p8-3">
          <mxGeometry x="20" y="160" width="3860" height="190" as="geometry" />
        </mxCell>
        <mxCell id="gacvTMB5N87pIhQxX2p8-33" style="edgeStyle=orthogonalEdgeStyle;rounded=0;orthogonalLoop=1;jettySize=auto;html=1;entryX=0;entryY=0.5;entryDx=0;entryDy=0;" edge="1" parent="gacvTMB5N87pIhQxX2p8-5" source="gacvTMB5N87pIhQxX2p8-13" target="gacvTMB5N87pIhQxX2p8-14">
          <mxGeometry relative="1" as="geometry" />
        </mxCell>
        <mxCell id="gacvTMB5N87pIhQxX2p8-13" value="Retirar Rotas" style="rounded=0;whiteSpace=wrap;html=1;fillColor=#fff2cc;strokeColor=#d6b656;" vertex="1" parent="gacvTMB5N87pIhQxX2p8-5">
          <mxGeometry x="160" y="60" width="120" height="60" as="geometry" />
        </mxCell>
        <mxCell id="gacvTMB5N87pIhQxX2p8-14" value="Solicitar retirada de kit de teste de leite" style="rounded=0;whiteSpace=wrap;html=1;fillColor=#fff2cc;strokeColor=#d6b656;" vertex="1" parent="gacvTMB5N87pIhQxX2p8-5">
          <mxGeometry x="360" y="60" width="120" height="60" as="geometry" />
        </mxCell>
        <mxCell id="gacvTMB5N87pIhQxX2p8-126" value="" style="edgeStyle=orthogonalEdgeStyle;rounded=0;orthogonalLoop=1;jettySize=auto;html=1;" edge="1" parent="gacvTMB5N87pIhQxX2p8-5" source="gacvTMB5N87pIhQxX2p8-16" target="gacvTMB5N87pIhQxX2p8-125">
          <mxGeometry relative="1" as="geometry" />
        </mxCell>
        <mxCell id="gacvTMB5N87pIhQxX2p8-16" value="Iniciar rota" style="rounded=0;whiteSpace=wrap;html=1;fillColor=#fff2cc;strokeColor=#d6b656;" vertex="1" parent="gacvTMB5N87pIhQxX2p8-5">
          <mxGeometry x="1740" y="60" width="120" height="60" as="geometry" />
        </mxCell>
        <mxCell id="gacvTMB5N87pIhQxX2p8-62" value="" style="endArrow=classic;html=1;rounded=0;entryX=0;entryY=0.5;entryDx=0;entryDy=0;endFill=1;" edge="1" parent="gacvTMB5N87pIhQxX2p8-5" target="gacvTMB5N87pIhQxX2p8-16">
          <mxGeometry width="50" height="50" relative="1" as="geometry">
            <mxPoint x="750" y="89.5" as="sourcePoint" />
            <mxPoint x="1360" y="89.5" as="targetPoint" />
          </mxGeometry>
        </mxCell>
        <mxCell id="gacvTMB5N87pIhQxX2p8-130" value="" style="edgeStyle=orthogonalEdgeStyle;rounded=0;orthogonalLoop=1;jettySize=auto;html=1;" edge="1" parent="gacvTMB5N87pIhQxX2p8-5" source="gacvTMB5N87pIhQxX2p8-125" target="gacvTMB5N87pIhQxX2p8-129">
          <mxGeometry relative="1" as="geometry" />
        </mxCell>
        <mxCell id="gacvTMB5N87pIhQxX2p8-125" value="Coletar e testar amostras" style="whiteSpace=wrap;html=1;fillColor=#fff2cc;strokeColor=#d6b656;rounded=0;" vertex="1" parent="gacvTMB5N87pIhQxX2p8-5">
          <mxGeometry x="1940" y="60" width="120" height="60" as="geometry" />
        </mxCell>
        <mxCell id="gacvTMB5N87pIhQxX2p8-132" value="" style="edgeStyle=orthogonalEdgeStyle;rounded=0;orthogonalLoop=1;jettySize=auto;html=1;" edge="1" parent="gacvTMB5N87pIhQxX2p8-5" source="gacvTMB5N87pIhQxX2p8-129" target="gacvTMB5N87pIhQxX2p8-131">
          <mxGeometry relative="1" as="geometry" />
        </mxCell>
        <mxCell id="gacvTMB5N87pIhQxX2p8-134" value="" style="edgeStyle=orthogonalEdgeStyle;rounded=0;orthogonalLoop=1;jettySize=auto;html=1;" edge="1" parent="gacvTMB5N87pIhQxX2p8-5" source="gacvTMB5N87pIhQxX2p8-129" target="gacvTMB5N87pIhQxX2p8-131">
          <mxGeometry relative="1" as="geometry" />
        </mxCell>
        <mxCell id="gacvTMB5N87pIhQxX2p8-208" value="Sim" style="edgeLabel;html=1;align=center;verticalAlign=middle;resizable=0;points=[];" vertex="1" connectable="0" parent="gacvTMB5N87pIhQxX2p8-134">
          <mxGeometry x="-0.0588" y="-3" relative="1" as="geometry">
            <mxPoint as="offset" />
          </mxGeometry>
        </mxCell>
        <mxCell id="gacvTMB5N87pIhQxX2p8-211" style="edgeStyle=orthogonalEdgeStyle;rounded=0;orthogonalLoop=1;jettySize=auto;html=1;entryX=0;entryY=0.5;entryDx=0;entryDy=0;" edge="1" parent="gacvTMB5N87pIhQxX2p8-5" source="gacvTMB5N87pIhQxX2p8-129" target="gacvTMB5N87pIhQxX2p8-210">
          <mxGeometry relative="1" as="geometry" />
        </mxCell>
        <mxCell id="gacvTMB5N87pIhQxX2p8-212" value="Não" style="edgeLabel;html=1;align=center;verticalAlign=middle;resizable=0;points=[];" vertex="1" connectable="0" parent="gacvTMB5N87pIhQxX2p8-211">
          <mxGeometry x="0.1625" y="-1" relative="1" as="geometry">
            <mxPoint as="offset" />
          </mxGeometry>
        </mxCell>
        <mxCell id="gacvTMB5N87pIhQxX2p8-129" value="Passou no teste?" style="rhombus;whiteSpace=wrap;html=1;fillColor=#fff2cc;strokeColor=#d6b656;rounded=0;" vertex="1" parent="gacvTMB5N87pIhQxX2p8-5">
          <mxGeometry x="2150" y="50" width="80" height="80" as="geometry" />
        </mxCell>
        <mxCell id="gacvTMB5N87pIhQxX2p8-221" value="" style="edgeStyle=orthogonalEdgeStyle;rounded=0;orthogonalLoop=1;jettySize=auto;html=1;" edge="1" parent="gacvTMB5N87pIhQxX2p8-5" source="gacvTMB5N87pIhQxX2p8-131" target="gacvTMB5N87pIhQxX2p8-220">
          <mxGeometry relative="1" as="geometry" />
        </mxCell>
        <mxCell id="gacvTMB5N87pIhQxX2p8-131" value="Coletar leite" style="whiteSpace=wrap;html=1;fillColor=#fff2cc;strokeColor=#d6b656;rounded=0;" vertex="1" parent="gacvTMB5N87pIhQxX2p8-5">
          <mxGeometry x="2340" y="110" width="120" height="60" as="geometry" />
        </mxCell>
        <mxCell id="gacvTMB5N87pIhQxX2p8-210" value="Notificar produtor" style="whiteSpace=wrap;html=1;fillColor=#fff2cc;strokeColor=#d6b656;rounded=0;" vertex="1" parent="gacvTMB5N87pIhQxX2p8-5">
          <mxGeometry x="2340" y="10" width="120" height="60" as="geometry" />
        </mxCell>
        <mxCell id="gacvTMB5N87pIhQxX2p8-215" value="Descarregar amostras" style="whiteSpace=wrap;html=1;fillColor=#fff2cc;strokeColor=#d6b656;rounded=0;" vertex="1" parent="gacvTMB5N87pIhQxX2p8-5">
          <mxGeometry x="2940" y="110" width="120" height="60" as="geometry" />
        </mxCell>
        <mxCell id="gacvTMB5N87pIhQxX2p8-223" value="" style="edgeStyle=orthogonalEdgeStyle;rounded=0;orthogonalLoop=1;jettySize=auto;html=1;" edge="1" parent="gacvTMB5N87pIhQxX2p8-5" source="gacvTMB5N87pIhQxX2p8-220" target="gacvTMB5N87pIhQxX2p8-222">
          <mxGeometry relative="1" as="geometry" />
        </mxCell>
        <mxCell id="gacvTMB5N87pIhQxX2p8-220" value="Finalizar rota" style="whiteSpace=wrap;html=1;fillColor=#fff2cc;strokeColor=#d6b656;rounded=0;" vertex="1" parent="gacvTMB5N87pIhQxX2p8-5">
          <mxGeometry x="2540" y="110" width="120" height="60" as="geometry" />
        </mxCell>
        <mxCell id="gacvTMB5N87pIhQxX2p8-226" style="edgeStyle=orthogonalEdgeStyle;rounded=0;orthogonalLoop=1;jettySize=auto;html=1;" edge="1" parent="gacvTMB5N87pIhQxX2p8-5" source="gacvTMB5N87pIhQxX2p8-222" target="gacvTMB5N87pIhQxX2p8-215">
          <mxGeometry relative="1" as="geometry" />
        </mxCell>
        <mxCell id="gacvTMB5N87pIhQxX2p8-222" value="Repassar informações do trajeto" style="whiteSpace=wrap;html=1;fillColor=#fff2cc;strokeColor=#d6b656;rounded=0;" vertex="1" parent="gacvTMB5N87pIhQxX2p8-5">
          <mxGeometry x="2740" y="110" width="120" height="60" as="geometry" />
        </mxCell>
        <mxCell id="gacvTMB5N87pIhQxX2p8-247" value="" style="edgeStyle=orthogonalEdgeStyle;rounded=0;orthogonalLoop=1;jettySize=auto;html=1;" edge="1" parent="gacvTMB5N87pIhQxX2p8-5" source="gacvTMB5N87pIhQxX2p8-229" target="gacvTMB5N87pIhQxX2p8-246">
          <mxGeometry relative="1" as="geometry" />
        </mxCell>
        <mxCell id="gacvTMB5N87pIhQxX2p8-229" value="Descarregar no tanque principal" style="whiteSpace=wrap;html=1;fillColor=#fff2cc;strokeColor=#d6b656;rounded=0;" vertex="1" parent="gacvTMB5N87pIhQxX2p8-5">
          <mxGeometry x="3300" y="20" width="120" height="60" as="geometry" />
        </mxCell>
        <mxCell id="gacvTMB5N87pIhQxX2p8-248" style="edgeStyle=orthogonalEdgeStyle;rounded=0;orthogonalLoop=1;jettySize=auto;html=1;entryX=0;entryY=0.5;entryDx=0;entryDy=0;" edge="1" parent="gacvTMB5N87pIhQxX2p8-5" source="gacvTMB5N87pIhQxX2p8-238" target="gacvTMB5N87pIhQxX2p8-246">
          <mxGeometry relative="1" as="geometry" />
        </mxCell>
        <mxCell id="gacvTMB5N87pIhQxX2p8-238" value="Descarregar no tanque secundário" style="whiteSpace=wrap;html=1;fillColor=#fff2cc;strokeColor=#d6b656;rounded=0;" vertex="1" parent="gacvTMB5N87pIhQxX2p8-5">
          <mxGeometry x="3300" y="110" width="120" height="60" as="geometry" />
        </mxCell>
        <mxCell id="gacvTMB5N87pIhQxX2p8-251" value="" style="edgeStyle=orthogonalEdgeStyle;rounded=0;orthogonalLoop=1;jettySize=auto;html=1;" edge="1" parent="gacvTMB5N87pIhQxX2p8-5" source="gacvTMB5N87pIhQxX2p8-246" target="gacvTMB5N87pIhQxX2p8-250">
          <mxGeometry relative="1" as="geometry" />
        </mxCell>
        <mxCell id="gacvTMB5N87pIhQxX2p8-246" value="Levar caminhão para área de manutenção" style="whiteSpace=wrap;html=1;fillColor=#fff2cc;strokeColor=#d6b656;rounded=0;" vertex="1" parent="gacvTMB5N87pIhQxX2p8-5">
          <mxGeometry x="3540" y="65" width="120" height="60" as="geometry" />
        </mxCell>
        <mxCell id="gacvTMB5N87pIhQxX2p8-250" value="Estacionar caminhão na garagem" style="whiteSpace=wrap;html=1;fillColor=#fff2cc;strokeColor=#d6b656;rounded=0;" vertex="1" parent="gacvTMB5N87pIhQxX2p8-5">
          <mxGeometry x="3720" y="65" width="120" height="60" as="geometry" />
        </mxCell>
        <mxCell id="gacvTMB5N87pIhQxX2p8-6" value="Aux. de Controle de Qualidade" style="swimlane;startSize=20;horizontal=0;html=1;" vertex="1" parent="gacvTMB5N87pIhQxX2p8-3">
          <mxGeometry x="20" y="350" width="3860" height="220" as="geometry" />
        </mxCell>
        <mxCell id="gacvTMB5N87pIhQxX2p8-38" style="edgeStyle=orthogonalEdgeStyle;rounded=0;orthogonalLoop=1;jettySize=auto;html=1;entryX=0;entryY=0.5;entryDx=0;entryDy=0;" edge="1" parent="gacvTMB5N87pIhQxX2p8-6" source="gacvTMB5N87pIhQxX2p8-17" target="gacvTMB5N87pIhQxX2p8-18">
          <mxGeometry relative="1" as="geometry" />
        </mxCell>
        <mxCell id="gacvTMB5N87pIhQxX2p8-17" value="Retirar kits" style="rounded=0;whiteSpace=wrap;html=1;fillColor=#fff2cc;strokeColor=#d6b656;" vertex="1" parent="gacvTMB5N87pIhQxX2p8-6">
          <mxGeometry x="527" y="80" width="120" height="60" as="geometry" />
        </mxCell>
        <mxCell id="gacvTMB5N87pIhQxX2p8-44" value="" style="edgeStyle=orthogonalEdgeStyle;rounded=0;orthogonalLoop=1;jettySize=auto;html=1;" edge="1" parent="gacvTMB5N87pIhQxX2p8-6" source="gacvTMB5N87pIhQxX2p8-18" target="gacvTMB5N87pIhQxX2p8-43">
          <mxGeometry relative="1" as="geometry" />
        </mxCell>
        <mxCell id="gacvTMB5N87pIhQxX2p8-45" value="Não" style="edgeLabel;html=1;align=center;verticalAlign=middle;resizable=0;points=[];" vertex="1" connectable="0" parent="gacvTMB5N87pIhQxX2p8-44">
          <mxGeometry x="-0.1412" relative="1" as="geometry">
            <mxPoint as="offset" />
          </mxGeometry>
        </mxCell>
        <mxCell id="gacvTMB5N87pIhQxX2p8-18" value="Quantidade disponível?" style="rhombus;whiteSpace=wrap;html=1;fillColor=#fff2cc;strokeColor=#d6b656;" vertex="1" parent="gacvTMB5N87pIhQxX2p8-6">
          <mxGeometry x="710" y="70" width="80" height="80" as="geometry" />
        </mxCell>
        <mxCell id="gacvTMB5N87pIhQxX2p8-37" style="edgeStyle=orthogonalEdgeStyle;rounded=0;orthogonalLoop=1;jettySize=auto;html=1;" edge="1" parent="gacvTMB5N87pIhQxX2p8-6" source="gacvTMB5N87pIhQxX2p8-36" target="gacvTMB5N87pIhQxX2p8-17">
          <mxGeometry relative="1" as="geometry" />
        </mxCell>
        <mxCell id="gacvTMB5N87pIhQxX2p8-36" value="Receber Solicitação" style="ellipse;shape=doubleEllipse;whiteSpace=wrap;html=1;aspect=fixed;fillColor=#fff2cc;strokeColor=#d6b656;" vertex="1" parent="gacvTMB5N87pIhQxX2p8-6">
          <mxGeometry x="380" y="70" width="80" height="80" as="geometry" />
        </mxCell>
        <mxCell id="gacvTMB5N87pIhQxX2p8-56" value="" style="edgeStyle=orthogonalEdgeStyle;rounded=0;orthogonalLoop=1;jettySize=auto;html=1;" edge="1" parent="gacvTMB5N87pIhQxX2p8-6" source="gacvTMB5N87pIhQxX2p8-43" target="gacvTMB5N87pIhQxX2p8-55">
          <mxGeometry relative="1" as="geometry" />
        </mxCell>
        <mxCell id="gacvTMB5N87pIhQxX2p8-43" value="Buscar kits no almoxarifado" style="whiteSpace=wrap;html=1;fillColor=#fff2cc;strokeColor=#d6b656;" vertex="1" parent="gacvTMB5N87pIhQxX2p8-6">
          <mxGeometry x="990" y="80" width="120" height="60" as="geometry" />
        </mxCell>
        <mxCell id="gacvTMB5N87pIhQxX2p8-74" value="" style="edgeStyle=orthogonalEdgeStyle;rounded=0;orthogonalLoop=1;jettySize=auto;html=1;" edge="1" parent="gacvTMB5N87pIhQxX2p8-6" source="gacvTMB5N87pIhQxX2p8-55" target="gacvTMB5N87pIhQxX2p8-73">
          <mxGeometry relative="1" as="geometry" />
        </mxCell>
        <mxCell id="gacvTMB5N87pIhQxX2p8-84" value="Não" style="edgeLabel;html=1;align=center;verticalAlign=middle;resizable=0;points=[];" vertex="1" connectable="0" parent="gacvTMB5N87pIhQxX2p8-74">
          <mxGeometry x="-0.15" y="3" relative="1" as="geometry">
            <mxPoint as="offset" />
          </mxGeometry>
        </mxCell>
        <mxCell id="gacvTMB5N87pIhQxX2p8-55" value="Quantidade disponível?" style="rhombus;whiteSpace=wrap;html=1;fillColor=#fff2cc;strokeColor=#d6b656;" vertex="1" parent="gacvTMB5N87pIhQxX2p8-6">
          <mxGeometry x="1210" y="70" width="80" height="80" as="geometry" />
        </mxCell>
        <mxCell id="gacvTMB5N87pIhQxX2p8-61" value="" style="endArrow=none;html=1;rounded=0;startFill=0;" edge="1" parent="gacvTMB5N87pIhQxX2p8-6">
          <mxGeometry width="50" height="50" relative="1" as="geometry">
            <mxPoint x="750" y="70" as="sourcePoint" />
            <mxPoint x="750" y="-100" as="targetPoint" />
          </mxGeometry>
        </mxCell>
        <mxCell id="gacvTMB5N87pIhQxX2p8-64" value="Sim" style="edgeLabel;html=1;align=center;verticalAlign=middle;resizable=0;points=[];" vertex="1" connectable="0" parent="gacvTMB5N87pIhQxX2p8-61">
          <mxGeometry x="0.1294" relative="1" as="geometry">
            <mxPoint as="offset" />
          </mxGeometry>
        </mxCell>
        <mxCell id="gacvTMB5N87pIhQxX2p8-83" value="" style="edgeStyle=orthogonalEdgeStyle;rounded=0;orthogonalLoop=1;jettySize=auto;html=1;" edge="1" parent="gacvTMB5N87pIhQxX2p8-6" source="gacvTMB5N87pIhQxX2p8-73" target="gacvTMB5N87pIhQxX2p8-82">
          <mxGeometry relative="1" as="geometry" />
        </mxCell>
        <mxCell id="gacvTMB5N87pIhQxX2p8-73" value="Avisar sobre a necessidade de mais kits" style="whiteSpace=wrap;html=1;fillColor=#fff2cc;strokeColor=#d6b656;" vertex="1" parent="gacvTMB5N87pIhQxX2p8-6">
          <mxGeometry x="1370" y="80" width="120" height="60" as="geometry" />
        </mxCell>
        <mxCell id="gacvTMB5N87pIhQxX2p8-82" value="Entregar quantidade disponível" style="whiteSpace=wrap;html=1;fillColor=#fff2cc;strokeColor=#d6b656;" vertex="1" parent="gacvTMB5N87pIhQxX2p8-6">
          <mxGeometry x="1580" y="80" width="120" height="60" as="geometry" />
        </mxCell>
        <mxCell id="gacvTMB5N87pIhQxX2p8-89" value="" style="endArrow=none;html=1;rounded=0;" edge="1" parent="gacvTMB5N87pIhQxX2p8-6">
          <mxGeometry width="50" height="50" relative="1" as="geometry">
            <mxPoint x="1250" y="70" as="sourcePoint" />
            <mxPoint x="1250" y="-100" as="targetPoint" />
          </mxGeometry>
        </mxCell>
        <mxCell id="gacvTMB5N87pIhQxX2p8-90" value="Sim" style="edgeLabel;html=1;align=center;verticalAlign=middle;resizable=0;points=[];" vertex="1" connectable="0" parent="gacvTMB5N87pIhQxX2p8-89">
          <mxGeometry x="-0.5294" y="-3" relative="1" as="geometry">
            <mxPoint as="offset" />
          </mxGeometry>
        </mxCell>
        <mxCell id="gacvTMB5N87pIhQxX2p8-228" value="" style="edgeStyle=orthogonalEdgeStyle;rounded=0;orthogonalLoop=1;jettySize=auto;html=1;" edge="1" parent="gacvTMB5N87pIhQxX2p8-6" source="gacvTMB5N87pIhQxX2p8-217" target="gacvTMB5N87pIhQxX2p8-227">
          <mxGeometry relative="1" as="geometry" />
        </mxCell>
        <mxCell id="gacvTMB5N87pIhQxX2p8-217" value="Testar qualidade" style="whiteSpace=wrap;html=1;fillColor=#fff2cc;strokeColor=#d6b656;rounded=0;" vertex="1" parent="gacvTMB5N87pIhQxX2p8-6">
          <mxGeometry x="2940" y="80" width="120" height="60" as="geometry" />
        </mxCell>
        <mxCell id="gacvTMB5N87pIhQxX2p8-227" value="Passou no teste?" style="rhombus;whiteSpace=wrap;html=1;fillColor=#fff2cc;strokeColor=#d6b656;rounded=0;" vertex="1" parent="gacvTMB5N87pIhQxX2p8-6">
          <mxGeometry x="3160" y="70" width="80" height="80" as="geometry" />
        </mxCell>
        <mxCell id="gacvTMB5N87pIhQxX2p8-19" value="Estoquista" style="swimlane;startSize=20;horizontal=0;html=1;" vertex="1" parent="gacvTMB5N87pIhQxX2p8-3">
          <mxGeometry x="20" y="570" width="3860" height="160" as="geometry" />
        </mxCell>
        <mxCell id="gacvTMB5N87pIhQxX2p8-92" value="" style="edgeStyle=orthogonalEdgeStyle;rounded=0;orthogonalLoop=1;jettySize=auto;html=1;" edge="1" parent="gacvTMB5N87pIhQxX2p8-19" source="gacvTMB5N87pIhQxX2p8-69" target="gacvTMB5N87pIhQxX2p8-91">
          <mxGeometry relative="1" as="geometry" />
        </mxCell>
        <mxCell id="gacvTMB5N87pIhQxX2p8-69" value="Aviso recebido" style="ellipse;shape=doubleEllipse;whiteSpace=wrap;html=1;aspect=fixed;fillColor=#fff2cc;strokeColor=#d6b656;" vertex="1" parent="gacvTMB5N87pIhQxX2p8-19">
          <mxGeometry x="1390" y="40" width="80" height="80" as="geometry" />
        </mxCell>
        <mxCell id="gacvTMB5N87pIhQxX2p8-91" value="Solicitar compra de mais kits" style="whiteSpace=wrap;html=1;fillColor=#fff2cc;strokeColor=#d6b656;" vertex="1" parent="gacvTMB5N87pIhQxX2p8-19">
          <mxGeometry x="1580" y="50" width="120" height="60" as="geometry" />
        </mxCell>
        <mxCell id="gacvTMB5N87pIhQxX2p8-22" value="Comprador" style="swimlane;startSize=20;horizontal=0;html=1;" vertex="1" parent="gacvTMB5N87pIhQxX2p8-3">
          <mxGeometry x="20" y="730" width="3860" height="160" as="geometry" />
        </mxCell>
        <mxCell id="gacvTMB5N87pIhQxX2p8-96" style="edgeStyle=orthogonalEdgeStyle;rounded=0;orthogonalLoop=1;jettySize=auto;html=1;entryX=0;entryY=0.5;entryDx=0;entryDy=0;" edge="1" parent="gacvTMB5N87pIhQxX2p8-22" source="gacvTMB5N87pIhQxX2p8-23" target="gacvTMB5N87pIhQxX2p8-25">
          <mxGeometry relative="1" as="geometry" />
        </mxCell>
        <mxCell id="gacvTMB5N87pIhQxX2p8-23" value="Cotar kits" style="rounded=0;whiteSpace=wrap;html=1;fillColor=#fff2cc;strokeColor=#d6b656;" vertex="1" parent="gacvTMB5N87pIhQxX2p8-22">
          <mxGeometry x="1740" y="60" width="120" height="60" as="geometry" />
        </mxCell>
        <mxCell id="gacvTMB5N87pIhQxX2p8-25" value="Solicitar aprovação dos preços" style="rounded=0;whiteSpace=wrap;html=1;fillColor=#fff2cc;strokeColor=#d6b656;" vertex="1" parent="gacvTMB5N87pIhQxX2p8-22">
          <mxGeometry x="1940" y="60" width="120" height="60" as="geometry" />
        </mxCell>
        <mxCell id="gacvTMB5N87pIhQxX2p8-95" style="edgeStyle=orthogonalEdgeStyle;rounded=0;orthogonalLoop=1;jettySize=auto;html=1;entryX=0;entryY=0.5;entryDx=0;entryDy=0;" edge="1" parent="gacvTMB5N87pIhQxX2p8-22" source="gacvTMB5N87pIhQxX2p8-93" target="gacvTMB5N87pIhQxX2p8-23">
          <mxGeometry relative="1" as="geometry" />
        </mxCell>
        <mxCell id="gacvTMB5N87pIhQxX2p8-93" value="Solicitação recebida" style="ellipse;shape=doubleEllipse;whiteSpace=wrap;html=1;aspect=fixed;fillColor=#fff2cc;strokeColor=#d6b656;" vertex="1" parent="gacvTMB5N87pIhQxX2p8-22">
          <mxGeometry x="1600" y="50" width="80" height="80" as="geometry" />
        </mxCell>
        <mxCell id="gacvTMB5N87pIhQxX2p8-106" value="Efetuar compra" style="whiteSpace=wrap;html=1;fillColor=#fff2cc;strokeColor=#d6b656;" vertex="1" parent="gacvTMB5N87pIhQxX2p8-22">
          <mxGeometry x="2370" y="60" width="120" height="60" as="geometry" />
        </mxCell>
        <mxCell id="gacvTMB5N87pIhQxX2p8-114" value="Informar compra ao financeiro" style="whiteSpace=wrap;html=1;fillColor=#fff2cc;strokeColor=#d6b656;" vertex="1" parent="gacvTMB5N87pIhQxX2p8-22">
          <mxGeometry x="2560" y="60" width="120" height="60" as="geometry" />
        </mxCell>
        <mxCell id="gacvTMB5N87pIhQxX2p8-115" value="" style="edgeStyle=orthogonalEdgeStyle;rounded=0;orthogonalLoop=1;jettySize=auto;html=1;" edge="1" parent="gacvTMB5N87pIhQxX2p8-22" source="gacvTMB5N87pIhQxX2p8-106" target="gacvTMB5N87pIhQxX2p8-114">
          <mxGeometry relative="1" as="geometry" />
        </mxCell>
        <mxCell id="gacvTMB5N87pIhQxX2p8-26" value="Controller" style="swimlane;startSize=20;horizontal=0;html=1;" vertex="1" parent="gacvTMB5N87pIhQxX2p8-3">
          <mxGeometry x="20" y="890" width="3860" height="180" as="geometry" />
        </mxCell>
        <mxCell id="gacvTMB5N87pIhQxX2p8-103" value="" style="edgeStyle=orthogonalEdgeStyle;rounded=0;orthogonalLoop=1;jettySize=auto;html=1;" edge="1" parent="gacvTMB5N87pIhQxX2p8-26" source="gacvTMB5N87pIhQxX2p8-98" target="gacvTMB5N87pIhQxX2p8-102">
          <mxGeometry relative="1" as="geometry" />
        </mxCell>
        <mxCell id="gacvTMB5N87pIhQxX2p8-98" value="Solicitação recebida" style="ellipse;shape=doubleEllipse;whiteSpace=wrap;html=1;aspect=fixed;fillColor=#fff2cc;strokeColor=#d6b656;" vertex="1" parent="gacvTMB5N87pIhQxX2p8-26">
          <mxGeometry x="1960" y="40" width="80" height="80" as="geometry" />
        </mxCell>
        <mxCell id="gacvTMB5N87pIhQxX2p8-105" value="" style="edgeStyle=orthogonalEdgeStyle;rounded=0;orthogonalLoop=1;jettySize=auto;html=1;" edge="1" parent="gacvTMB5N87pIhQxX2p8-26" source="gacvTMB5N87pIhQxX2p8-102" target="gacvTMB5N87pIhQxX2p8-104">
          <mxGeometry relative="1" as="geometry" />
        </mxCell>
        <mxCell id="gacvTMB5N87pIhQxX2p8-102" value="Aprovar compra" style="whiteSpace=wrap;html=1;fillColor=#fff2cc;strokeColor=#d6b656;" vertex="1" parent="gacvTMB5N87pIhQxX2p8-26">
          <mxGeometry x="2100" y="50" width="120" height="60" as="geometry" />
        </mxCell>
        <mxCell id="gacvTMB5N87pIhQxX2p8-104" value="Aprovado?" style="rhombus;whiteSpace=wrap;html=1;fillColor=#fff2cc;strokeColor=#d6b656;" vertex="1" parent="gacvTMB5N87pIhQxX2p8-26">
          <mxGeometry x="2280" y="40" width="80" height="80" as="geometry" />
        </mxCell>
        <mxCell id="gacvTMB5N87pIhQxX2p8-111" value="" style="endArrow=none;html=1;rounded=0;" edge="1" parent="gacvTMB5N87pIhQxX2p8-26">
          <mxGeometry width="50" height="50" relative="1" as="geometry">
            <mxPoint x="1800" y="150" as="sourcePoint" />
            <mxPoint x="2320" y="119" as="targetPoint" />
            <Array as="points">
              <mxPoint x="2320" y="150" />
            </Array>
          </mxGeometry>
        </mxCell>
        <mxCell id="gacvTMB5N87pIhQxX2p8-113" value="Não" style="edgeLabel;html=1;align=center;verticalAlign=middle;resizable=0;points=[];" vertex="1" connectable="0" parent="gacvTMB5N87pIhQxX2p8-111">
          <mxGeometry x="0.6697" y="3" relative="1" as="geometry">
            <mxPoint as="offset" />
          </mxGeometry>
        </mxCell>
        <mxCell id="gacvTMB5N87pIhQxX2p8-112" value="" style="endArrow=classicThin;html=1;rounded=0;entryX=0.5;entryY=1;entryDx=0;entryDy=0;endFill=1;" edge="1" parent="gacvTMB5N87pIhQxX2p8-26" target="gacvTMB5N87pIhQxX2p8-23">
          <mxGeometry width="50" height="50" relative="1" as="geometry">
            <mxPoint x="1800" y="150" as="sourcePoint" />
            <mxPoint x="1850" y="100" as="targetPoint" />
          </mxGeometry>
        </mxCell>
        <mxCell id="gacvTMB5N87pIhQxX2p8-30" value="Financeiro" style="swimlane;startSize=20;horizontal=0;html=1;" vertex="1" parent="gacvTMB5N87pIhQxX2p8-3">
          <mxGeometry x="20" y="1070" width="3860" height="180" as="geometry" />
        </mxCell>
        <mxCell id="gacvTMB5N87pIhQxX2p8-31" value="FInalizar compra" style="rounded=0;whiteSpace=wrap;html=1;fillColor=#fff2cc;strokeColor=#d6b656;" vertex="1" parent="gacvTMB5N87pIhQxX2p8-30">
          <mxGeometry x="910" y="50" width="120" height="60" as="geometry" />
        </mxCell>
        <mxCell id="gacvTMB5N87pIhQxX2p8-119" value="" style="edgeStyle=orthogonalEdgeStyle;rounded=0;orthogonalLoop=1;jettySize=auto;html=1;" edge="1" parent="gacvTMB5N87pIhQxX2p8-30" source="gacvTMB5N87pIhQxX2p8-116" target="gacvTMB5N87pIhQxX2p8-118">
          <mxGeometry relative="1" as="geometry" />
        </mxCell>
        <mxCell id="gacvTMB5N87pIhQxX2p8-116" value="Informação recebida" style="ellipse;shape=doubleEllipse;whiteSpace=wrap;html=1;aspect=fixed;fillColor=#fff2cc;strokeColor=#d6b656;" vertex="1" parent="gacvTMB5N87pIhQxX2p8-30">
          <mxGeometry x="2580" y="50" width="80" height="80" as="geometry" />
        </mxCell>
        <mxCell id="gacvTMB5N87pIhQxX2p8-118" value="Pagar Fornecedor" style="whiteSpace=wrap;html=1;fillColor=#fff2cc;strokeColor=#d6b656;" vertex="1" parent="gacvTMB5N87pIhQxX2p8-30">
          <mxGeometry x="2740" y="60" width="120" height="60" as="geometry" />
        </mxCell>
        <mxCell id="gacvTMB5N87pIhQxX2p8-32" style="edgeStyle=orthogonalEdgeStyle;rounded=0;orthogonalLoop=1;jettySize=auto;html=1;entryX=0;entryY=0.5;entryDx=0;entryDy=0;" edge="1" parent="gacvTMB5N87pIhQxX2p8-3" source="gacvTMB5N87pIhQxX2p8-10" target="gacvTMB5N87pIhQxX2p8-13">
          <mxGeometry relative="1" as="geometry" />
        </mxCell>
        <mxCell id="gacvTMB5N87pIhQxX2p8-35" style="edgeStyle=orthogonalEdgeStyle;rounded=0;orthogonalLoop=1;jettySize=auto;html=1;entryX=0.5;entryY=0;entryDx=0;entryDy=0;dashed=1;" edge="1" parent="gacvTMB5N87pIhQxX2p8-3" source="gacvTMB5N87pIhQxX2p8-14" target="gacvTMB5N87pIhQxX2p8-36">
          <mxGeometry relative="1" as="geometry">
            <mxPoint x="440" y="430" as="targetPoint" />
          </mxGeometry>
        </mxCell>
        <mxCell id="gacvTMB5N87pIhQxX2p8-80" style="edgeStyle=orthogonalEdgeStyle;rounded=0;orthogonalLoop=1;jettySize=auto;html=1;dashed=1;" edge="1" parent="gacvTMB5N87pIhQxX2p8-3" source="gacvTMB5N87pIhQxX2p8-73" target="gacvTMB5N87pIhQxX2p8-69">
          <mxGeometry relative="1" as="geometry" />
        </mxCell>
        <mxCell id="gacvTMB5N87pIhQxX2p8-85" style="edgeStyle=orthogonalEdgeStyle;rounded=0;orthogonalLoop=1;jettySize=auto;html=1;entryX=0.5;entryY=1;entryDx=0;entryDy=0;" edge="1" parent="gacvTMB5N87pIhQxX2p8-3" source="gacvTMB5N87pIhQxX2p8-82" target="gacvTMB5N87pIhQxX2p8-16">
          <mxGeometry relative="1" as="geometry" />
        </mxCell>
        <mxCell id="gacvTMB5N87pIhQxX2p8-94" style="edgeStyle=orthogonalEdgeStyle;rounded=0;orthogonalLoop=1;jettySize=auto;html=1;dashed=1;" edge="1" parent="gacvTMB5N87pIhQxX2p8-3" source="gacvTMB5N87pIhQxX2p8-91" target="gacvTMB5N87pIhQxX2p8-93">
          <mxGeometry relative="1" as="geometry" />
        </mxCell>
        <mxCell id="gacvTMB5N87pIhQxX2p8-101" style="edgeStyle=orthogonalEdgeStyle;rounded=0;orthogonalLoop=1;jettySize=auto;html=1;entryX=0.5;entryY=0;entryDx=0;entryDy=0;dashed=1;" edge="1" parent="gacvTMB5N87pIhQxX2p8-3" source="gacvTMB5N87pIhQxX2p8-25" target="gacvTMB5N87pIhQxX2p8-98">
          <mxGeometry relative="1" as="geometry" />
        </mxCell>
        <mxCell id="gacvTMB5N87pIhQxX2p8-107" value="" style="edgeStyle=orthogonalEdgeStyle;rounded=0;orthogonalLoop=1;jettySize=auto;html=1;" edge="1" parent="gacvTMB5N87pIhQxX2p8-3" source="gacvTMB5N87pIhQxX2p8-104" target="gacvTMB5N87pIhQxX2p8-106">
          <mxGeometry relative="1" as="geometry" />
        </mxCell>
        <mxCell id="gacvTMB5N87pIhQxX2p8-108" value="Sim" style="edgeLabel;html=1;align=center;verticalAlign=middle;resizable=0;points=[];" vertex="1" connectable="0" parent="gacvTMB5N87pIhQxX2p8-107">
          <mxGeometry x="0.4421" relative="1" as="geometry">
            <mxPoint as="offset" />
          </mxGeometry>
        </mxCell>
        <mxCell id="gacvTMB5N87pIhQxX2p8-117" style="edgeStyle=orthogonalEdgeStyle;rounded=0;orthogonalLoop=1;jettySize=auto;html=1;entryX=0.5;entryY=0;entryDx=0;entryDy=0;dashed=1;" edge="1" parent="gacvTMB5N87pIhQxX2p8-3" source="gacvTMB5N87pIhQxX2p8-114" target="gacvTMB5N87pIhQxX2p8-116">
          <mxGeometry relative="1" as="geometry" />
        </mxCell>
        <mxCell id="gacvTMB5N87pIhQxX2p8-218" value="" style="edgeStyle=orthogonalEdgeStyle;rounded=0;orthogonalLoop=1;jettySize=auto;html=1;" edge="1" parent="gacvTMB5N87pIhQxX2p8-3" source="gacvTMB5N87pIhQxX2p8-215" target="gacvTMB5N87pIhQxX2p8-217">
          <mxGeometry relative="1" as="geometry" />
        </mxCell>
        <mxCell id="gacvTMB5N87pIhQxX2p8-225" style="edgeStyle=orthogonalEdgeStyle;rounded=0;orthogonalLoop=1;jettySize=auto;html=1;entryX=0.5;entryY=1;entryDx=0;entryDy=0;" edge="1" parent="gacvTMB5N87pIhQxX2p8-3" source="gacvTMB5N87pIhQxX2p8-222" target="gacvTMB5N87pIhQxX2p8-224">
          <mxGeometry relative="1" as="geometry" />
        </mxCell>
        <mxCell id="gacvTMB5N87pIhQxX2p8-233" style="edgeStyle=orthogonalEdgeStyle;rounded=0;orthogonalLoop=1;jettySize=auto;html=1;exitX=0.5;exitY=0;exitDx=0;exitDy=0;entryX=0;entryY=0.5;entryDx=0;entryDy=0;" edge="1" parent="gacvTMB5N87pIhQxX2p8-3" source="gacvTMB5N87pIhQxX2p8-227" target="gacvTMB5N87pIhQxX2p8-229">
          <mxGeometry relative="1" as="geometry">
            <mxPoint x="3220" y="210" as="targetPoint" />
          </mxGeometry>
        </mxCell>
        <mxCell id="gacvTMB5N87pIhQxX2p8-236" value="Sim" style="edgeLabel;html=1;align=center;verticalAlign=middle;resizable=0;points=[];" vertex="1" connectable="0" parent="gacvTMB5N87pIhQxX2p8-233">
          <mxGeometry x="0.6968" relative="1" as="geometry">
            <mxPoint as="offset" />
          </mxGeometry>
        </mxCell>
        <mxCell id="gacvTMB5N87pIhQxX2p8-242" style="edgeStyle=orthogonalEdgeStyle;rounded=0;orthogonalLoop=1;jettySize=auto;html=1;entryX=0;entryY=0.5;entryDx=0;entryDy=0;" edge="1" parent="gacvTMB5N87pIhQxX2p8-3" source="gacvTMB5N87pIhQxX2p8-227" target="gacvTMB5N87pIhQxX2p8-238">
          <mxGeometry relative="1" as="geometry">
            <Array as="points">
              <mxPoint x="3220" y="300" />
            </Array>
          </mxGeometry>
        </mxCell>
        <mxCell id="gacvTMB5N87pIhQxX2p8-243" value="Não" style="edgeLabel;html=1;align=center;verticalAlign=middle;resizable=0;points=[];" vertex="1" connectable="0" parent="gacvTMB5N87pIhQxX2p8-242">
          <mxGeometry x="0.4909" y="1" relative="1" as="geometry">
            <mxPoint x="6" y="1" as="offset" />
          </mxGeometry>
        </mxCell>
        <mxCell id="gacvTMB5N87pIhQxX2p8-7" value="Fornecedor" style="swimlane;horizontal=0;whiteSpace=wrap;html=1;" vertex="1" parent="1">
          <mxGeometry x="220" y="1490" width="3880" height="200" as="geometry" />
        </mxCell>
        <mxCell id="gacvTMB5N87pIhQxX2p8-123" value="Enviar pedido de novos kits" style="whiteSpace=wrap;html=1;fillColor=#fff2cc;strokeColor=#d6b656;" vertex="1" parent="gacvTMB5N87pIhQxX2p8-7">
          <mxGeometry x="2910" y="70" width="120" height="60" as="geometry" />
        </mxCell>
        <mxCell id="gacvTMB5N87pIhQxX2p8-124" value="" style="edgeStyle=orthogonalEdgeStyle;rounded=0;orthogonalLoop=1;jettySize=auto;html=1;" edge="1" parent="1" source="gacvTMB5N87pIhQxX2p8-118" target="gacvTMB5N87pIhQxX2p8-123">
          <mxGeometry relative="1" as="geometry" />
        </mxCell>
        <mxCell id="gacvTMB5N87pIhQxX2p8-214" style="edgeStyle=orthogonalEdgeStyle;rounded=0;orthogonalLoop=1;jettySize=auto;html=1;entryX=0.5;entryY=1;entryDx=0;entryDy=0;" edge="1" parent="1" source="gacvTMB5N87pIhQxX2p8-210" target="gacvTMB5N87pIhQxX2p8-213">
          <mxGeometry relative="1" as="geometry" />
        </mxCell>
      </root>
    </mxGraphModel>
  </diagram>
</mxfile>
